<?xml version="1.0" encoding="utf-8"?>
<!-- Generator: Adobe Illustrator 19.0.0, SVG Export Plug-In . SVG Version: 6.00 Build 0)  -->
<svg version="1.1" id="Warstwa_1" xmlns="http://www.w3.org/2000/svg" xmlns:xlink="http://www.w3.org/1999/xlink" x="0px" y="0px"
	 viewBox="0 0 200 50" style="enable-background:new 0 0 200 50;" xml:space="preserve">
<style type="text/css">
	.st0{fill:#FFFFFF;}
</style>
<g id="_x32_6">
	<path id="XMLID_8_" class="st0" d="M67.6,34.6c-0.9-1.5-0.7-3.4-0.3-5c1.1-3.8,3.8-7.1,7.1-9.2c-0.1,0.1-0.4,0.1-0.5,0.2
		c-3.4,2.1-14.7,12.3-7.9,16.1c2.9,1.6,7.2-0.1,8.6-2.9c-0.1,0.1-0.5,0.1-0.6,0.2C72.2,36.2,69.4,37.5,67.6,34.6z"/>
	<path class="st0" d="M185.8,3.8c-2.3-0.7-4.9-1.1-7.3-0.8c-2.2,0.3-4.3,0.4-6,2.1c-1.5,1.5-2.3,3.9-1.6,5.9
		c0.7,2.1,2.7,3.6,4.9,3.5c0.9-0.1,1.9-0.5,2.3-1.3c0.7-1.2-0.2-1.6-1-2.4c0.7,0.7-0.5,1.7-1,1.8c-0.9,0.3-1.9,0.2-2.6-0.5
		c-0.8-0.7-1.1-1.8-1-2.8c0.5-5.1,6.8-6.4,11-5.7c2.4,0.4,4.7,1.3,6.7,2.6c3.8,2.5,6.7,7.9,6.4,12.6c-0.3,4.1-1.9,6.3-4.2,7.2
		c2.3-4.8-1.4-10.6-5.9-11.5c-1.6-0.5-3.3-0.7-4.9-0.4c-2,0.3-4.6,2.5-3.8,4.8c0.4,1.2,1.8,2.1,3,2.5c1,0.4,2.3,0.4,3.2-0.3
		c0.1-0.1,0.2-0.2,0.2-0.4c0-0.1-0.2-0.2-0.3-0.3c-1-0.5-1.7-0.6-1.7-1.8c0-1.1,0.5-2.1,1.4-2.6c1.5-0.9,3.8-1,5.2,0.1
		c1.6,1.3,2.6,3.5,2.9,5.5c0,0.2,0,0.4,0,0.6c-0.2,1.6-0.9,3.1-1.9,4.4c-8.4,0.2-22-9.4-27-12.9c-6.8-4.9-13.9-10-22.1-12.3
		c-4.7-1.3-10.3-1.7-14.3,1.8c-0.2,0.2-0.4,0.4-0.6,0.6c-1.6-0.3-3.2-0.4-4.8-0.2c-6.4,0.6-9.1,3.6-9.8,7.5
		c-2.6,0.1-5.3,0.8-7.8,2.2c-1.3,0.7-2.6,1.7-3.9,2.9C98,15,96.7,14,95.4,13.2c-2.5-1.4-5.1-2.1-7.8-2.2c-0.6-3.9-3.4-6.9-9.8-7.5
		c-1.6-0.2-3.2,0-4.8,0.2c-0.2-0.2-0.4-0.4-0.6-0.6c-4-3.5-9.5-3.1-14.3-1.8C50,3.7,42.8,8.8,36,13.6c-5,3.6-18.6,13.2-27,12.9
		c-1-1.3-1.7-2.7-1.9-4.4c0-0.2,0-0.4,0-0.6c0.3-2,1.3-4.2,2.9-5.5c1.4-1.1,3.7-1,5.2-0.1c0.9,0.6,1.4,1.5,1.4,2.6
		c0,1.2-0.7,1.4-1.7,1.8c-0.1,0.1-0.3,0.1-0.3,0.3c0,0.1,0.1,0.3,0.2,0.4c0.9,0.7,2.1,0.7,3.2,0.3c1.2-0.4,2.6-1.3,3-2.5
		c0.7-2.3-1.8-4.4-3.8-4.8c-1.6-0.3-3.3-0.1-4.9,0.4C7.7,15.4,4,21.2,6.3,26c-2.3-0.9-3.9-3.1-4.2-7.2c-0.3-4.6,2.5-10,6.4-12.6
		c2-1.3,4.3-2.2,6.7-2.6c4.1-0.7,10.5,0.6,11,5.7c0.1,1-0.2,2.1-1,2.8c-0.7,0.7-1.7,0.8-2.6,0.5c-0.5-0.2-1.8-1.2-1-1.8
		c-0.8,0.7-1.7,1.2-1,2.4c0.4,0.8,1.4,1.2,2.3,1.3c2.2,0.1,4.3-1.4,4.9-3.5c0.7-2.1-0.1-4.4-1.6-5.9c-1.7-1.7-3.8-1.8-6-2.1
		c-2.4-0.3-5,0.1-7.3,0.8C5.3,6.1-5.2,16.4,1.4,24.6c1.5,1.9,3.6,2.8,5.9,2.9c1.1,1.3,2.7,2.5,5.1,3.4c12.8,4.8,30.9-9,40.2-15.4
		c3.2-2.2,6.8-5,10.6-7.3c1,0.7,1.7,1.6,2.2,2.7c0.6,1.4,0.9,3.7-0.6,4.6c-1.5,1-3.5-0.3-3.8-1.9c-2.1,1-1.6,3.4,0.5,3.9
		c1.9,0.5,4.2-0.4,5.8-1.5c4.3-3.1,2.8-7.4-0.5-9.7c1.8-0.8,3.6-1.4,5.4-1.8c3.1,3.7,2.6,8.9-1.7,11.5c0.1-0.1,0.5-0.1,0.7-0.2
		c4.5-2.4,5.6-7.6,2.6-11.5c0.7-0.1,1.4-0.1,2.1,0c4.5,0.3,7.9,2.8,9.3,6.6c-3.2,0.3-6.4,1.3-9.5,2.7c-6.3,3.1-26.4,22.7-10.9,26
		c5.2,1.1,10.6-2.3,13.8-6c4.1-4.8,9.9-14.8,9.3-22c4,0.7,7.6,3.1,10.5,6.1c-0.7,0.6-1.3,1.1-1.9,1.7c-3.8,3.6-7,8.4-7.8,13.6
		c-0.6,3.7,0.1,7.7,1.6,11.1c0.8,1.7,1.9,3.2,3.4,4.3c2.7,2,7.5,2.1,10.5,0.7c5.2-2.5,7-11,6.2-16.1c-0.8-5.3-4-10-7.8-13.6
		c-0.6-0.6-1.3-1.2-1.9-1.7c2.9-3.1,6.5-5.5,10.5-6.1c-0.7,7.2,5.1,17.3,9.3,22c3.2,3.7,8.6,7.1,13.8,6c15.5-3.4-4.6-22.9-10.9-26
		c-3-1.5-6.2-2.5-9.5-2.7c1.4-3.8,4.8-6.3,9.3-6.6c0.7-0.1,1.4,0,2.1,0c-3,3.9-1.8,9,2.6,11.5c0.2,0.1,0.5,0.1,0.7,0.2
		c-4.4-2.6-4.9-7.8-1.7-11.5c1.8,0.3,3.6,0.9,5.4,1.8c-3.3,2.3-4.8,6.6-0.5,9.7c1.6,1.1,3.9,1.9,5.8,1.5c2-0.5,2.5-2.9,0.5-3.9
		c-0.3,1.7-2.2,2.9-3.8,1.9c-1.5-0.9-1.2-3.3-0.6-4.6c0.4-1.1,1.2-1.9,2.2-2.7c3.8,2.3,7.4,5.1,10.6,7.3
		c9.4,6.4,27.4,20.2,40.2,15.4c2.4-0.9,4-2.1,5.1-3.4c2.3-0.2,4.4-1,5.9-2.9C203.8,16.4,193.3,6.1,185.8,3.8z M66.2,6.1
		c-1.4-0.8-3.1-1.4-4.7-1.3c-17.5,0.5-28.3,20.4-45,23.9c0,0,0,0,0,0c7-0.9,13.4-4.3,19.1-8.3c6-4.1,13.8-13.1,21.2-13.9
		c1.9-0.2,4.2,0.3,6,1.5c-4.4,2.6-8.5,5.9-12.1,8.4C41.1,22.8,24.8,35.5,13.4,30c-1.2-0.6-2.4-1.4-3.4-2.4C15.2,27,21.1,24,24.6,22
		c7.8-4.3,14.5-10.3,22-15c6.7-4.2,18.1-9.8,25-3C69.7,4.5,67.9,5.2,66.2,6.1z M64.6,38c-4.5-2.9-2.9-7.9-0.6-11.8
		c4.3-7.2,11.3-13.7,20-14.5c0.4,0,0.8,0,1.2,0c0.3,0.9,0.5,1.8,0.6,2.9C86.3,22.6,74.4,44.4,64.6,38z M103.8,23.3
		c1.3,1.9,2.3,4,3,6.1c1.4,4.5,1.2,9.3-0.6,13.6c-0.7,1.6-1.8,3.1-3.1,4.2c-1.6,1.4-4.1,2.1-6.1,1.1c-2.1-1.1-3.7-3.2-4.6-5.3
		c-4-9.2,0.2-18.5,7.1-24.8C99.6,18.1,103.5,22.8,103.8,23.3z M114.6,11.7c8.7,0.9,15.7,7.4,20,14.5c2.4,3.9,3.9,8.9-0.6,11.8
		c-9.8,6.4-21.8-15.4-21.2-23.5c0.1-1,0.3-2,0.6-2.9C113.8,11.7,114.2,11.7,114.6,11.7z M185.3,30c-11.4,5.5-27.7-7.2-37.2-13.7
		c-3.6-2.5-7.7-5.7-12.1-8.4c1.8-1.1,4.1-1.7,6-1.5c7.4,0.8,15.3,9.8,21.2,13.9c5.7,3.9,12.1,7.3,19.1,8.3c0,0,0,0,0,0
		c-16.8-3.5-27.5-23.3-45-23.9c-1.7-0.1-3.3,0.5-4.7,1.3c-1.8-0.8-3.6-1.5-5.4-2c6.8-6.8,18.2-1.2,25,3c7.5,4.7,14.2,10.7,22,15
		c3.5,1.9,9.4,5,14.6,5.5C187.7,28.6,186.5,29.4,185.3,30z"/>
	<path id="XMLID_1_" class="st0" d="M124.6,34c-0.1-0.1-0.6-0.1-0.6-0.2c1.4,2.8,5.7,4.5,8.6,2.9c6.8-3.8-4.4-14.1-7.9-16.1
		c-0.1-0.1-0.4-0.1-0.5-0.2c3.3,2.1,6,5.3,7.1,9.2c0.5,1.6,0.7,3.5-0.3,5C129.3,37.5,126.5,36.2,124.6,34z"/>
</g>
</svg>
