<?xml version="1.0" encoding="utf-8"?>
<!-- Generator: Adobe Illustrator 19.0.0, SVG Export Plug-In . SVG Version: 6.00 Build 0)  -->
<svg version="1.1" id="Warstwa_1" xmlns="http://www.w3.org/2000/svg" xmlns:xlink="http://www.w3.org/1999/xlink" x="0px" y="0px"
	 viewBox="0 0 100 100" style="enable-background:new 0 0 100 100;" xml:space="preserve">
<style type="text/css">
	.st0{fill:#9A4731;}
	.st1{fill:#D85B4B;}
	.st2{fill:#C74A41;}
	.st3{fill:#E6E6E6;}
	.st4{fill:#7B3827;}
</style>
<g id="XMLID_2_">
	<path id="XMLID_15_" class="st0" d="M1.9,78.3c0,0,6.4,14,22.9,19.5c3.7,1.2,7.5,1.5,11.4,1.9c15.8,1.4,53.6-2,62.4-38.5
		c2.7-11.5,1.5-23.5-2.9-34.5C89.3,11.1,75.2-9.1,45.8,4.4c-16.7,7.7-15.4,20.8-11.9,30c4.3,11.1-4.5,22.5-16.2,20.9
		C3.4,53.4-3.7,62.1,1.9,78.3z"/>
	<g id="XMLID_10_">
		<path id="XMLID_14_" class="st1" d="M9.4,74.9c0.8,1.6,6.1,11.3,18.3,15.3c2.7,0.9,5.7,1.2,9,1.5l0.6,0.1c1.6,0.1,3.4,0.2,5.3,0.2
			c36.5,0,45.9-22.7,48.2-32.5c2.3-9.5,1.4-19.7-2.5-29.4c-5.9-14.6-14.3-22-25-22c-4.4,0-9.4,1.2-14.8,3.7c-6,2.8-13.4,7.9-8.3,21
			c2.6,6.6,1.8,13.7-2.1,19.4c-4.4,6.5-12,9.9-19.9,8.9c-1-0.1-1.9-0.2-2.8-0.2c-2.2,0-5,0.4-6.4,2.3C7.6,65.4,7.7,69.7,9.4,74.9z"
			/>
		<path id="XMLID_11_" class="st2" d="M42.5,93.9c-1.9,0-3.7-0.1-5.4-0.2l-0.6-0.1c-3.4-0.3-6.5-0.6-9.4-1.6
			C14.3,87.8,8.6,77.8,7.6,75.8l-0.1-0.3c-2-5.9-2-10.7-0.1-13.4c1.8-2.6,5.8-3.7,11.1-3c7.1,0.9,14-2.1,17.9-8
			c3.5-5.2,4.2-11.6,1.8-17.6c-6.4-16.3,5.4-21.8,9.3-23.6C67.1,1,81.4,7.6,90.1,29.3c4.1,10.1,4.9,20.7,2.6,30.6
			C90.2,70.1,80.4,93.9,42.5,93.9z M11.3,74.1c0.8,1.5,5.9,10.4,17.1,14.2c2.5,0.8,5.4,1.1,8.5,1.4l0.6,0.1c1.6,0.1,3.3,0.2,5.1,0.2
			c35.1,0,44-21.7,46.3-31c2.2-9.1,1.3-18.8-2.4-28.1c-5.5-13.7-13.3-20.7-23.2-20.7c-4.1,0-8.8,1.2-13.9,3.5
			c-6.1,2.8-11.7,7.2-7.3,18.4c2.8,7.2,2,15-2.3,21.3C35,60.5,26.6,64.3,18,63.1c-3.6-0.5-6.4,0-7.3,1.3
			C9.9,65.7,9.5,68.8,11.3,74.1z"/>
	</g>
	<g id="XMLID_5_">
		<ellipse id="XMLID_9_" class="st3" cx="65.1" cy="25.4" rx="8" ry="8.1"/>
		<path id="XMLID_6_" class="st4" d="M65.1,35.5c-5.5,0-10-4.5-10-10.1s4.5-10.1,10-10.1s10,4.5,10,10.1S70.7,35.5,65.1,35.5z
			 M65.1,19.3c-3.3,0-6,2.7-6,6.1s2.7,6.1,6,6.1c3.3,0,6-2.7,6-6.1S68.5,19.3,65.1,19.3z"/>
	</g>
	<path id="XMLID_4_" class="st2" d="M51.4,92.1l-3.9-1c0.9-3.6-2.1-6.5-6.9-9.8c-5.8-4-9.7-10.4-10.7-17.4c-0.4-2.6-0.9-4.6-0.9-4.7
		l3.9-1.1c0,0.1,2.2,6.3,8,8.7c4.2,1.8,9.4,1.2,15.4-1.7c23.2-11.3,34.3-5.4,34.8-5.1l-1.9,3.6c-0.1,0-10-5-31.1,5.2
		c-7.1,3.4-13.4,4-18.7,1.7c-1.6-0.7-3-1.6-4.2-2.6c1.5,4,4.2,7.5,7.8,9.9C46.5,80.4,53.1,85.1,51.4,92.1z"/>
	<path id="XMLID_3_" class="st2" d="M54.3,55.4c-10.8,0-15.3-7.5-15.3-7.6l3.5-2l-1.7,1l1.7-1c0.2,0.4,5.4,8.8,19.5,4.3
		c3.1-1.6,24.2-12.2,31.4-4.6l-2.9,2.8c-4-4.2-18.5,1.2-26.8,5.5l-0.3,0.1C60,55,57,55.4,54.3,55.4z"/>
</g>
</svg>
