<?xml version="1.0" encoding="utf-8"?>
<!-- Generator: Adobe Illustrator 19.0.0, SVG Export Plug-In . SVG Version: 6.00 Build 0)  -->
<svg version="1.1" id="Warstwa_1" xmlns="http://www.w3.org/2000/svg" xmlns:xlink="http://www.w3.org/1999/xlink" x="0px" y="0px"
	 viewBox="0 0 100 100" style="enable-background:new 0 0 100 100;" xml:space="preserve">
<style type="text/css">
	.st0{fill:#659C35;}
	.st1{fill:#D23935;}
	.st2{fill:#89C059;}
	.st3{fill:#EB5C5A;}
</style>
<g id="XMLID_2_">
	<path id="XMLID_6_" class="st0" d="M87.5,15.9c-0.5,0-1-0.2-1.4-0.6c-0.8-0.8-0.8-2-0.1-2.8c2.1-2.2,3.2-4.6,2.9-6.2
		c-0.2-1-1.2-1.8-2.8-2.4c-1.1-0.4-1.6-1.5-1.2-2.6c0.4-1,1.6-1.6,2.6-1.2c3.7,1.3,5,3.6,5.4,5.3c0.7,3-0.8,6.7-3.9,9.9
		C88.6,15.7,88,15.9,87.5,15.9z"/>
	<path id="XMLID_5_" class="st1" d="M64.9,30.7c-0.3,0.9-0.6,1.9-0.8,3.1C57,64.7,30.7,81,1.1,97.2c-1.4,0.7-1.5,3-0.2,2.8
		c19.1-2.8,68.9,1.9,93.2-54.2c0,0,12.6-25.8-3.5-30.1C90.6,15.7,68.4,5.4,64.9,30.7z"/>
	<path id="XMLID_4_" class="st2" d="M99.1,35.3c1.8-8.1,1.8-17.8-7.8-20.3c0,0-21.7-10-26.9,12.7c5.1-0.4,11.9-1.4,13.8-4.1
		c0,0,4.5,4.4,2.2,10.8c0,0,9.6-1.1,8.7-8.6c0,0,5.9,5,4.4,12.9C93.4,38.6,96.3,37.8,99.1,35.3z"/>
	<path id="XMLID_3_" class="st3" d="M29.6,92.3c-0.9,0-1.7-0.5-1.9-1.4c-0.3-1.1,0.2-2.2,1.3-2.5c44.2-14,49-43.7,49.1-44
		c0.2-1.1,1.2-1.9,2.3-1.7c1.1,0.2,1.9,1.2,1.7,2.3c-0.2,1.3-5.3,32.5-51.9,47.3C30,92.3,29.8,92.3,29.6,92.3z"/>
</g>
</svg>
