<?xml version="1.0" encoding="utf-8"?>
<!-- Generator: Adobe Illustrator 19.0.0, SVG Export Plug-In . SVG Version: 6.00 Build 0)  -->
<svg version="1.1" id="Warstwa_1" xmlns="http://www.w3.org/2000/svg" xmlns:xlink="http://www.w3.org/1999/xlink" x="0px" y="0px"
	 viewBox="0 0 100 100" style="enable-background:new 0 0 100 100;" xml:space="preserve">
<style type="text/css">
	.st0{fill:#3C8032;}
	.st1{fill:#4BA134;}
</style>
<path id="XMLID_7_" class="st0" d="M66.7,0c0,0,8.9,21.6-29.2,36.1C16.9,44,1,64.2,20,95.5c1.6-14,8.3-44.7,37.3-51.7
	c0,0-26.9,10-29.3,55.4c13.8,1.9,46.3,3.2,56-24.8C96.6,37.3,66.7,0,66.7,0z"/>
<path id="XMLID_6_" class="st1" d="M27.9,98.9c29.4-11.7,50.8-39,53.7-71.7C75.6,11.1,66.7,0,66.7,0s8.9,21.6-29.2,36.1
	C16.9,44,1,64.2,20,95.5c1.6-14,8.3-44.7,37.3-51.7C57.2,43.7,30.3,53.7,27.9,98.9z"/>
<ellipse id="XMLID_5_" class="st0" cx="17" cy="34.1" rx="2.7" ry="2.7"/>
<g id="XMLID_9_">
	<ellipse id="XMLID_4_" class="st1" cx="25.7" cy="31.4" rx="2" ry="2"/>
	<ellipse id="XMLID_3_" class="st1" cx="23.9" cy="12.8" rx="4.9" ry="4.9"/>
	<ellipse id="XMLID_2_" class="st1" cx="39" cy="24" rx="1.6" ry="1.6"/>
	<ellipse id="XMLID_1_" class="st1" cx="52.2" cy="15.2" rx="4.5" ry="4.5"/>
</g>
</svg>
